<?xml version="1.0" encoding="UTF-8"?>
<svg width="12px" height="12px" viewBox="0 0 12 12" version="1.1" xmlns="http://www.w3.org/2000/svg" xmlns:xlink="http://www.w3.org/1999/xlink">
    <!-- Generator: Sketch 61 (89581) - https://sketch.com -->
    <title>Shape</title>
    <desc>Created with Sketch.</desc>
    <g id="Tasks" stroke="none" stroke-width="1" fill="none" fill-rule="evenodd" fill-opacity="0.58">
        <g id="Present" transform="translate(-479.000000, -228.000000)" fill="#000000" fill-rule="nonzero">
            <g id="Group-5" transform="translate(193.000000, 188.000000)">
                <g id="Group-4" transform="translate(0.000000, 28.000000)">
                    <g id="Group-2">
                        <g id="Group-12" transform="translate(228.000000, 10.000000)">
                            <g id="format_align_right-24px" transform="translate(56.000000, 0.000000)">
                                <path d="M2,14 L14,14 L14,12.6666667 L2,12.6666667 L2,14 Z M6,11.3333333 L14,11.3333333 L14,10 L6,10 L6,11.3333333 Z M2,8.66666667 L14,8.66666667 L14,7.33333333 L2,7.33333333 L2,8.66666667 Z M6,6 L14,6 L14,4.66666667 L6,4.66666667 L6,6 Z M2,2 L2,3.33333333 L14,3.33333333 L14,2 L2,2 Z" id="Shape"></path>
                            </g>
                        </g>
                    </g>
                </g>
            </g>
        </g>
    </g>
</svg>