<?xml version="1.0" encoding="UTF-8"?>
<svg width="8px" height="10px" viewBox="0 0 8 10" version="1.1" xmlns="http://www.w3.org/2000/svg" xmlns:xlink="http://www.w3.org/1999/xlink">
    <!-- Generator: Sketch 61 (89581) - https://sketch.com -->
    <title>Shape</title>
    <desc>Created with Sketch.</desc>
    <g id="Tasks" stroke="none" stroke-width="1" fill="none" fill-rule="evenodd" fill-opacity="0.58">
        <g id="Present" transform="translate(-328.000000, -228.000000)" fill="#000000" fill-rule="nonzero">
            <g id="Group-5" transform="translate(193.000000, 188.000000)">
                <g id="Group-4" transform="translate(0.000000, 28.000000)">
                    <g id="Group-2">
                        <g id="Group-20" transform="translate(118.001401, 6.000000)">
                            <g id="Group-19" transform="translate(13.000000, 4.000000)">
                                <g id="Group-16">
                                    <g id="format_bold-24px">
                                        <path d="M10.4,7.19333333 C11.0466667,6.74666667 11.5,6.01333333 11.5,5.33333333 C11.5,3.82666667 10.3333333,2.66666667 8.83333333,2.66666667 L4.66666667,2.66666667 L4.66666667,12 L9.36,12 C10.7533333,12 11.8333333,10.8666667 11.8333333,9.47333333 C11.8333333,8.46 11.26,7.59333333 10.4,7.19333333 Z M6.66666667,4.33333333 L8.66666667,4.33333333 C9.22,4.33333333 9.66666667,4.78 9.66666667,5.33333333 C9.66666667,5.88666667 9.22,6.33333333 8.66666667,6.33333333 L6.66666667,6.33333333 L6.66666667,4.33333333 Z M9,10.3333333 L6.66666667,10.3333333 L6.66666667,8.33333333 L9,8.33333333 C9.55333333,8.33333333 10,8.78 10,9.33333333 C10,9.88666667 9.55333333,10.3333333 9,10.3333333 Z" id="Shape"></path>
                                    </g>
                                </g>
                            </g>
                        </g>
                    </g>
                </g>
            </g>
        </g>
    </g>
</svg>