<?xml version="1.0" encoding="UTF-8"?>
<svg width="14px" height="8px" viewBox="0 0 14 8" version="1.1" xmlns="http://www.w3.org/2000/svg" xmlns:xlink="http://www.w3.org/1999/xlink">
    <!-- Generator: Sketch 61 (89581) - https://sketch.com -->
    <title>Shape</title>
    <desc>Created with Sketch.</desc>
    <g id="Tasks" stroke="none" stroke-width="1" fill="none" fill-rule="evenodd" fill-opacity="0.58">
        <g id="Present" transform="translate(-644.000000, -230.000000)" fill="#000000" fill-rule="nonzero">
            <g id="Group-5" transform="translate(193.000000, 188.000000)">
                <g id="Group-4" transform="translate(0.000000, 28.000000)">
                    <g id="Group-2">
                        <g id="Group-14" transform="translate(422.000000, 10.000000)">
                            <g id="insert_link-24px" transform="translate(28.000000, 0.000000)">
                                <path d="M2.6,8 C2.6,6.86 3.52666667,5.93333333 4.66666667,5.93333333 L7.33333333,5.93333333 L7.33333333,4.66666667 L4.66666667,4.66666667 C2.82666667,4.66666667 1.33333333,6.16 1.33333333,8 C1.33333333,9.84 2.82666667,11.3333333 4.66666667,11.3333333 L7.33333333,11.3333333 L7.33333333,10.0666667 L4.66666667,10.0666667 C3.52666667,10.0666667 2.6,9.14 2.6,8 Z M5.33333333,8.66666667 L10.6666667,8.66666667 L10.6666667,7.33333333 L5.33333333,7.33333333 L5.33333333,8.66666667 Z M11.3333333,4.66666667 L8.66666667,4.66666667 L8.66666667,5.93333333 L11.3333333,5.93333333 C12.4733333,5.93333333 13.4,6.86 13.4,8 C13.4,9.14 12.4733333,10.0666667 11.3333333,10.0666667 L8.66666667,10.0666667 L8.66666667,11.3333333 L11.3333333,11.3333333 C13.1733333,11.3333333 14.6666667,9.84 14.6666667,8 C14.6666667,6.16 13.1733333,4.66666667 11.3333333,4.66666667 Z" id="Shape"></path>
                            </g>
                        </g>
                    </g>
                </g>
            </g>
        </g>
    </g>
</svg>