<?xml version="1.0" encoding="UTF-8"?>
<svg width="13px" height="10px" viewBox="0 0 13 10" version="1.1" xmlns="http://www.w3.org/2000/svg" xmlns:xlink="http://www.w3.org/1999/xlink">
    <!-- Generator: Sketch 61 (89581) - https://sketch.com -->
    <title>Shape</title>
    <desc>Created with Sketch.</desc>
    <g id="Tasks" stroke="none" stroke-width="1" fill="none" fill-rule="evenodd" fill-opacity="0.58">
        <g id="Present" transform="translate(-547.000000, -229.000000)" fill="#000000" fill-rule="nonzero">
            <g id="Group-5" transform="translate(193.000000, 188.000000)">
                <g id="Group-4" transform="translate(0.000000, 28.000000)">
                    <g id="Group-2">
                        <g id="Group-13" transform="translate(353.000000, 10.000000)">
                            <g id="format_list_bulleted-24px">
                                <path d="M2.66666667,7 C2.11333333,7 1.66666667,7.44666667 1.66666667,8 C1.66666667,8.55333333 2.11333333,9 2.66666667,9 C3.22,9 3.66666667,8.55333333 3.66666667,8 C3.66666667,7.44666667 3.22,7 2.66666667,7 Z M2.66666667,3 C2.11333333,3 1.66666667,3.44666667 1.66666667,4 C1.66666667,4.55333333 2.11333333,5 2.66666667,5 C3.22,5 3.66666667,4.55333333 3.66666667,4 C3.66666667,3.44666667 3.22,3 2.66666667,3 Z M2.66666667,11 C2.11333333,11 1.66666667,11.4533333 1.66666667,12 C1.66666667,12.5466667 2.12,13 2.66666667,13 C3.21333333,13 3.66666667,12.5466667 3.66666667,12 C3.66666667,11.4533333 3.22,11 2.66666667,11 Z M4.66666667,12.6666667 L14,12.6666667 L14,11.3333333 L4.66666667,11.3333333 L4.66666667,12.6666667 Z M4.66666667,8.66666667 L14,8.66666667 L14,7.33333333 L4.66666667,7.33333333 L4.66666667,8.66666667 Z M4.66666667,3.33333333 L4.66666667,4.66666667 L14,4.66666667 L14,3.33333333 L4.66666667,3.33333333 Z" id="Shape"></path>
                            </g>
                        </g>
                    </g>
                </g>
            </g>
        </g>
    </g>
</svg>