<?xml version="1.0" encoding="UTF-8"?>
<svg width="13px" height="12px" viewBox="0 0 13 12" version="1.1" xmlns="http://www.w3.org/2000/svg" xmlns:xlink="http://www.w3.org/1999/xlink">
    <!-- Generator: Sketch 61 (89581) - https://sketch.com -->
    <title>Shape</title>
    <desc>Created with Sketch.</desc>
    <g id="Tasks" stroke="none" stroke-width="1" fill="none" fill-rule="evenodd" fill-opacity="0.58">
        <g id="Present" transform="translate(-575.000000, -228.000000)" fill="#000000" fill-rule="nonzero">
            <g id="Group-5" transform="translate(193.000000, 188.000000)">
                <g id="Group-4" transform="translate(0.000000, 28.000000)">
                    <g id="Group-2">
                        <g id="Group-13" transform="translate(353.000000, 10.000000)">
                            <g id="format_list_numbered-24px" transform="translate(28.000000, 0.000000)">
                                <path d="M1.33333333,11.3333333 L2.66666667,11.3333333 L2.66666667,11.6666667 L2,11.6666667 L2,12.3333333 L2.66666667,12.3333333 L2.66666667,12.6666667 L1.33333333,12.6666667 L1.33333333,13.3333333 L3.33333333,13.3333333 L3.33333333,10.6666667 L1.33333333,10.6666667 L1.33333333,11.3333333 Z M2,5.33333333 L2.66666667,5.33333333 L2.66666667,2.66666667 L1.33333333,2.66666667 L1.33333333,3.33333333 L2,3.33333333 L2,5.33333333 Z M1.33333333,7.33333333 L2.53333333,7.33333333 L1.33333333,8.73333333 L1.33333333,9.33333333 L3.33333333,9.33333333 L3.33333333,8.66666667 L2.13333333,8.66666667 L3.33333333,7.26666667 L3.33333333,6.66666667 L1.33333333,6.66666667 L1.33333333,7.33333333 Z M4.66666667,3.33333333 L4.66666667,4.66666667 L14,4.66666667 L14,3.33333333 L4.66666667,3.33333333 Z M4.66666667,12.6666667 L14,12.6666667 L14,11.3333333 L4.66666667,11.3333333 L4.66666667,12.6666667 Z M4.66666667,8.66666667 L14,8.66666667 L14,7.33333333 L4.66666667,7.33333333 L4.66666667,8.66666667 Z" id="Shape"></path>
                            </g>
                        </g>
                    </g>
                </g>
            </g>
        </g>
    </g>
</svg>