<?xml version="1.0" encoding="UTF-8"?>
<svg width="13px" height="12px" viewBox="0 0 13 12" version="1.1" xmlns="http://www.w3.org/2000/svg" xmlns:xlink="http://www.w3.org/1999/xlink">
    <!-- Generator: Sketch 61 (89581) - https://sketch.com -->
    <title>Shape</title>
    <desc>Created with Sketch.</desc>
    <g id="Tasks" stroke="none" stroke-width="1" fill="none" fill-rule="evenodd" fill-opacity="0.58">
        <g id="Present" transform="translate(-673.000000, -228.000000)" fill="#000000" fill-rule="nonzero">
            <g id="Group-5" transform="translate(193.000000, 188.000000)">
                <g id="Group-4" transform="translate(0.000000, 28.000000)">
                    <g id="Group-2">
                        <g id="Group-14" transform="translate(422.000000, 10.000000)">
                            <g id="table_chart-24px" transform="translate(56.000000, 0.000000)">
                                <path d="M13.3333333,2 L3.33333333,2 C2.6,2 2,2.6 2,3.33333333 L2,12.6666667 C2,13.4 2.6,14 3.33333333,14 L13.3333333,14 C14.0666667,14 14.6666667,13.4 14.6666667,12.6666667 L14.6666667,3.33333333 C14.6666667,2.6 14.0666667,2 13.3333333,2 Z M13.3333333,3.33333333 L13.3333333,5.33333333 L3.33333333,5.33333333 L3.33333333,3.33333333 L13.3333333,3.33333333 Z M10,12.6666667 L6.66666667,12.6666667 L6.66666667,6.66666667 L10,6.66666667 L10,12.6666667 Z M3.33333333,6.66666667 L5.33333333,6.66666667 L5.33333333,12.6666667 L3.33333333,12.6666667 L3.33333333,6.66666667 Z M11.3333333,12.6666667 L11.3333333,6.66666667 L13.3333333,6.66666667 L13.3333333,12.6666667 L11.3333333,12.6666667 Z" id="Shape"></path>
                            </g>
                        </g>
                    </g>
                </g>
            </g>
        </g>
    </g>
</svg>